<svg xmlns="http://www.w3.org/2000/svg" width="1440" viewBox="0 0 1440 810" height="810" version="1.0"><defs><clipPath id="a"><path d="M 0.1875 169.203125 L 749.046875 169.203125 L 749.046875 563.703125 L 0.1875 563.703125 Z M 0.1875 169.203125"/></clipPath></defs><g clip-path="url(#a)"><path fill="#FFF" d="M 164.386719 263.175781 C 164.386719 263.175781 226.796875 200.742188 247.183594 184.195312 C 268.808594 167.65625 281.527344 166.378906 289.152344 172.742188 C 296.832031 177.835938 289.152344 184.195312 289.152344 184.195312 C 289.152344 184.195312 285.339844 179.105469 281.527344 180.378906 C 276.4375 181.648438 202.625 237.683594 192.410156 246.636719 C 180.960938 254.269531 165.699219 264.453125 164.386719 264.453125 C 163.15625 264.453125 164.386719 263.175781 164.386719 263.175781 Z M 407.5625 212.234375 C 407.5625 212.234375 444.449219 177.835938 454.664062 177.835938 C 463.566406 177.835938 464.84375 189.332031 464.84375 193.101562 C 464.84375 196.964844 463.566406 194.417969 455.941406 194.417969 C 449.582031 195.648438 422.828125 212.234375 416.464844 213.507812 C 411.382812 216.054688 407.5625 212.234375 407.5625 212.234375 Z M 137.679688 287.359375 C 137.679688 287.359375 136.402344 284.8125 140.222656 280.992188 C 142.765625 277.175781 147.851562 273.359375 151.667969 274.628906 C 154.207031 277.175781 154.207031 280.992188 151.667969 283.539062 C 147.851562 287.359375 141.492188 289.898438 140.222656 288.675781 C 138.945312 288.675781 137.679688 287.359375 137.679688 287.359375 Z M 116.050781 306.488281 C 116.050781 306.488281 116.050781 303.945312 118.597656 300.082031 C 121.140625 297.535156 124.957031 294.992188 127.5 296.304688 C 130.042969 297.535156 130.042969 301.398438 127.5 303.945312 C 124.957031 306.488281 118.597656 307.757812 117.28125 307.757812 Z M 103.335938 502.628906 Z M 103.335938 502.628906 C 107.109375 502.628906 110.96875 514.082031 110.96875 528.078125 C 110.96875 543.394531 107.109375 554.847656 103.335938 554.847656 C 99.476562 554.847656 95.664062 543.394531 95.664062 528.078125 C 95.664062 514.082031 99.476562 502.628906 103.335938 502.628906 Z M 77.859375 503.898438 Z M 77.859375 503.898438 C 81.671875 503.898438 84.214844 515.351562 84.214844 529.351562 C 84.214844 544.664062 81.671875 556.117188 77.859375 556.117188 C 74.042969 556.117188 71.5 544.664062 71.5 530.625 C 71.5 515.351562 74.042969 503.898438 77.859375 503.898438 Z M 272.625 475.859375 C 280.25 474.589844 286.613281 492.449219 286.613281 512.8125 C 286.613281 533.164062 280.25 551.023438 272.625 551.023438 C 264.988281 551.023438 258.585938 534.480469 258.585938 512.8125 C 258.585938 492.449219 264.988281 475.859375 272.625 475.859375 Z M 272.625 534.480469 C 275.167969 528.078125 275.167969 521.71875 275.167969 512.8125 C 275.167969 506.441406 275.167969 500.082031 273.890625 493.71875 C 273.890625 487.359375 280.25 491.175781 281.527344 500.082031 C 281.527344 503.898438 281.527344 508.988281 281.527344 512.8125 C 281.527344 521.71875 280.25 529.351562 278.980469 535.757812 C 277.710938 540.839844 271.347656 539.570312 272.625 534.480469 Z M 239.511719 533.164062 C 240.78125 528.078125 242.050781 521.71875 242.050781 514.082031 C 242.050781 507.71875 240.78125 501.359375 239.511719 497.535156 C 240.78125 489.902344 245.871094 493.71875 247.183594 502.628906 C 247.183594 506.441406 248.414062 510.257812 248.414062 514.082031 C 248.414062 521.71875 247.183594 529.351562 244.640625 534.480469 C 243.324219 538.300781 238.234375 538.300781 239.511719 533.164062 Z M 290.429688 250.410156 C 282.796875 251.722656 280.25 256.816406 280.25 258.046875 L 280.25 337.027344 L 290.429688 333.257812 Z M 314.636719 534.480469 L 315.90625 533.164062 L 314.636719 533.164062 Z M 427.917969 554.847656 L 433 554.847656 C 444.449219 551.023438 452.128906 524.257812 452.128906 492.449219 C 452.128906 458.046875 443.179688 431.285156 430.457031 431.285156 C 421.554688 431.285156 412.652344 450.40625 410.105469 475.859375 L 415.195312 475.859375 C 417.742188 461.867188 422.828125 451.683594 427.917969 451.683594 C 435.546875 451.683594 441.902344 470.773438 441.902344 494.996094 C 441.902344 519.171875 435.546875 538.300781 427.917969 538.300781 C 424.097656 538.300781 421.554688 535.757812 419.015625 529.351562 L 412.652344 529.351562 C 416.464844 543.394531 421.554688 552.300781 427.917969 554.847656 Z M 383.359375 554.847656 L 415.195312 554.847656 C 411.382812 548.480469 407.5625 540.839844 405.023438 533.164062 L 393.53125 533.164062 C 393.53125 534.480469 393.53125 535.757812 393.53125 537.03125 C 390.988281 545.941406 385.898438 552.300781 383.359375 554.847656 Z M 307.003906 556.117188 L 323.539062 556.117188 C 322.265625 554.847656 320.996094 554.847656 319.71875 553.570312 C 317.175781 551.023438 314.636719 544.664062 313.324219 539.570312 C 313.324219 540.839844 313.324219 540.839844 313.324219 540.839844 C 310.773438 548.480469 308.234375 553.570312 307.003906 556.117188 Z M 193.683594 557.386719 L 239.511719 556.117188 C 236.96875 554.847656 235.691406 551.023438 235.691406 551.023438 L 236.96875 549.753906 C 238.234375 551.023438 238.234375 551.023438 239.511719 551.023438 C 247.183594 551.023438 253.503906 535.757812 253.503906 515.351562 C 253.503906 496.265625 247.183594 480.953125 239.511719 480.953125 C 231.878906 480.953125 225.519531 496.265625 225.519531 515.351562 C 225.519531 522.988281 226.796875 529.351562 228.0625 534.480469 L 205.167969 534.480469 C 205.167969 534.480469 205.167969 534.480469 203.855469 535.757812 C 202.625 548.480469 194.953125 556.117188 193.683594 557.386719 Z M 127.5 557.386719 L 145.304688 557.386719 C 144.035156 557.386719 142.765625 557.386719 142.765625 556.117188 C 138.945312 552.300781 136.402344 539.570312 136.402344 539.570312 C 136.402344 539.570312 135.132812 539.570312 132.589844 547.210938 C 131.320312 551.023438 130.042969 554.847656 127.5 557.386719 Z M 7.816406 558.664062 L 67.636719 558.664062 C 65.097656 553.570312 62.550781 547.210938 61.320312 538.300781 C 60.007812 539.570312 60.007812 539.570312 58.785156 539.570312 C 57.464844 539.570312 46.015625 540.839844 43.476562 538.300781 C 40.933594 537.03125 40.933594 534.480469 40.933594 534.480469 L 39.65625 508.988281 C 39.65625 507.71875 39.65625 507.71875 39.65625 506.441406 L 39.65625 496.265625 L 37.113281 398.195312 C 37.113281 396.921875 37.113281 395.652344 38.386719 394.378906 L 258.585938 232.59375 C 267.535156 226.230469 277.710938 239 266.257812 246.636719 L 44.746094 399.46875 L 47.292969 493.71875 L 271.347656 460.589844 L 272.625 433.824219 C 266.257812 431.285156 254.816406 427.460938 247.183594 428.730469 C 238.234375 431.285156 76.582031 458.046875 76.582031 458.046875 C 75.269531 458.046875 75.269531 458.046875 75.269531 456.769531 L 76.582031 456.769531 L 272.625 403.285156 L 273.890625 377.792969 C 272.625 376.519531 270.078125 376.519531 268.808594 375.25 C 259.898438 372.695312 250.953125 373.972656 244.640625 375.25 C 239.511719 376.519531 77.859375 430.007812 76.582031 430.007812 C 74.042969 430.007812 74.042969 428.730469 75.269531 428.730469 C 75.269531 428.730469 245.871094 351.070312 271.347656 339.574219 L 271.347656 315.398438 C 267.535156 315.398438 262.445312 315.398438 254.816406 316.667969 C 240.78125 320.480469 80.402344 402.015625 75.269531 403.285156 C 70.179688 404.5625 71.5 402.015625 71.5 402.015625 C 71.5 402.015625 240.78125 289.898438 271.347656 270.816406 L 271.347656 255.5 C 271.347656 254.269531 275.167969 246.636719 282.796875 244.09375 L 282.796875 204.601562 C 282.796875 200.742188 286.613281 196.964844 290.429688 196.964844 C 294.289062 196.964844 298.054688 200.742188 298.054688 204.601562 L 298.054688 221.140625 C 312.09375 221.140625 351.5625 222.417969 388.441406 223.6875 C 420.285156 224.960938 450.851562 227.507812 450.851562 228.777344 L 450.851562 249.183594 L 457.210938 249.183594 L 457.210938 208.371094 C 457.210938 204.601562 459.753906 202.054688 463.566406 202.054688 C 467.382812 202.054688 469.925781 204.601562 469.925781 208.371094 L 469.925781 250.410156 L 485.195312 250.410156 C 485.195312 250.410156 485.195312 247.863281 519.574219 261.90625 C 555.230469 274.628906 574.304688 288.675781 574.304688 289.898438 C 573.035156 289.898438 557.773438 287.359375 524.664062 287.359375 C 499.222656 286.128906 445.761719 287.359375 422.828125 287.359375 C 424.097656 287.359375 424.097656 288.675781 424.097656 289.898438 C 426.644531 291.214844 557.773438 292.445312 562.855469 293.757812 C 567.945312 293.757812 569.222656 297.535156 570.492188 298.851562 C 571.761719 300.082031 580.664062 324.304688 580.664062 324.304688 C 580.664062 324.304688 615.050781 329.390625 618.863281 330.664062 C 622.675781 330.664062 621.40625 334.480469 621.40625 334.480469 L 529.746094 331.9375 L 420.285156 354.886719 C 420.285156 354.886719 406.292969 352.296875 405.023438 344.664062 L 394.800781 292.445312 C 394.800781 289.898438 403.75 286.128906 408.835938 284.8125 C 379.539062 268.269531 345.160156 255.5 307.003906 250.410156 L 303.144531 250.410156 L 303.144531 458.046875 C 303.144531 458.046875 309.546875 460.589844 313.324219 468.230469 C 318.449219 475.859375 319.71875 488.628906 319.71875 488.628906 L 385.898438 484.8125 C 385.898438 484.8125 387.171875 454.230469 388.441406 446.589844 C 390.988281 440.230469 393.53125 445.320312 393.53125 446.589844 C 393.53125 447.867188 392.261719 475.859375 392.261719 479.683594 C 392.261719 484.8125 393.53125 494.996094 393.53125 494.996094 L 300.601562 498.8125 C 300.601562 498.8125 299.375 493.71875 291.742188 480.953125 C 284.070312 469.5 275.167969 468.230469 275.167969 468.230469 C 275.167969 468.230469 282.796875 474.589844 286.613281 482.222656 C 290.429688 489.902344 294.289062 511.535156 295.511719 514.082031 C 296.832031 515.351562 301.921875 515.351562 301.921875 515.351562 L 401.203125 514.082031 C 401.203125 507.71875 399.933594 500.082031 399.933594 493.71875 C 399.933594 451.683594 415.195312 417.285156 434.277344 417.285156 C 441.902344 417.285156 449.582031 422.371094 454.664062 433.824219 C 461.023438 447.867188 464.84375 469.5 467.382812 492.449219 C 469.925781 516.621094 485.195312 525.535156 495.410156 529.351562 C 492.867188 543.394531 491.550781 549.753906 487.738281 553.570312 L 601.058594 553.570312 C 598.511719 551.023438 595.96875 548.480469 593.429688 543.394531 C 589.609375 535.757812 588.296875 528.078125 588.296875 522.988281 L 506.859375 524.257812 C 506.859375 524.257812 486.460938 516.621094 482.648438 494.996094 C 477.558594 474.589844 476.285156 436.371094 466.113281 419.832031 C 455.941406 403.285156 431.730469 403.285156 425.375 403.285156 C 417.742188 404.5625 407.5625 408.378906 403.75 410.921875 C 401.203125 413.46875 417.742188 390.5625 440.636719 385.425781 C 463.566406 381.609375 485.195312 385.425781 501.769531 395.652344 C 517.03125 405.832031 518.304688 410.921875 518.304688 410.921875 L 490.277344 410.921875 C 490.277344 410.921875 485.195312 412.191406 485.195312 414.738281 C 486.460938 417.285156 486.460938 430.007812 486.460938 430.007812 C 486.460938 430.007812 487.738281 432.554688 492.867188 433.824219 C 496.679688 433.824219 522.117188 433.824219 531.019531 433.824219 L 531.019531 367.609375 C 531.019531 353.609375 545.050781 337.027344 557.773438 338.34375 L 658.332031 340.886719 C 671.050781 340.886719 677.40625 353.609375 677.40625 365.066406 L 677.40625 390.5625 C 683.816406 394.378906 696.535156 400.738281 702.890625 405.832031 C 711.792969 414.738281 713.070312 414.738281 711.792969 416.007812 L 679.953125 417.285156 C 679.953125 417.285156 679.953125 436.371094 679.953125 437.683594 C 681.226562 437.683594 718.152344 436.371094 720.695312 438.960938 C 721.972656 440.230469 725.785156 484.8125 723.242188 501.359375 C 720.695312 519.171875 715.609375 522.988281 714.339844 522.988281 L 677.40625 522.988281 C 676.136719 524.257812 676.136719 526.804688 674.871094 529.351562 C 671.050781 540.839844 664.691406 548.480469 662.152344 552.300781 L 742.359375 551.023438 C 751.265625 551.023438 751.265625 563.75 742.359375 563.75 L 7.816406 563.75 C -2.355469 563.75 -2.355469 558.664062 7.816406 558.664062 Z M 559.042969 358.703125 C 561.589844 358.703125 564.132812 361.25 564.132812 363.792969 L 564.132812 436.371094 L 553.953125 436.371094 L 553.953125 365.066406 C 553.953125 361.25 556.5 358.703125 559.042969 358.703125 Z M 585.753906 358.703125 C 588.296875 358.703125 590.886719 361.25 590.886719 363.792969 L 590.886719 435.09375 L 580.664062 436.371094 L 580.664062 363.792969 C 580.664062 361.25 583.207031 358.703125 585.753906 358.703125 Z M 611.230469 358.703125 C 613.773438 358.703125 616.320312 361.25 616.320312 363.792969 L 616.320312 435.09375 L 606.148438 435.09375 L 606.148438 363.792969 C 606.148438 361.25 608.691406 358.703125 611.230469 358.703125 Z M 636.714844 358.703125 C 639.257812 358.703125 641.796875 361.25 641.796875 363.792969 L 641.796875 435.09375 L 631.578125 435.09375 L 631.578125 363.792969 C 631.578125 361.25 634.125 358.703125 636.714844 358.703125 Z M 659.609375 358.703125 C 662.152344 358.703125 664.691406 361.25 664.691406 363.792969 L 664.691406 435.09375 L 654.519531 435.09375 L 654.519531 363.792969 C 654.519531 361.25 657.0625 358.703125 659.609375 358.703125 Z M 500.492188 461.867188 L 709.25 459.320312 L 709.25 475.859375 L 500.492188 477.136719 Z M 368.097656 302.621094 C 368.097656 302.621094 382.085938 297.535156 384.628906 298.851562 C 385.898438 300.082031 387.171875 307.757812 387.171875 307.757812 L 394.800781 353.609375 L 366.824219 363.792969 C 366.824219 363.792969 364.277344 363.792969 360.421875 362.523438 C 356.652344 359.972656 356.652344 356.15625 356.652344 356.15625 L 352.792969 309.035156 L 368.097656 302.621094" fill-rule="evenodd"/></g><g><g><g><path d="M 41.109375 -18.953125 L 10.953125 11.203125 L 3.765625 4.015625 L 33.921875 -26.140625 Z M 41.109375 -18.953125" transform="translate(564.92 246)"/></g></g></g><g fill="#FF8D55" fill-opacity=".4"><g><g><path d="M 43.914062 -105.816406 L 9.257812 -105.816406 L 9.257812 0 L 43.914062 0 C 71.824219 0 91.664062 -23.675781 91.664062 -52.910156 C 91.664062 -82.140625 71.03125 -105.816406 43.914062 -105.816406 Z M 43.914062 -86.109375 C 59.65625 -86.109375 71.957031 -71.558594 71.957031 -52.910156 C 71.957031 -43.386719 69.046875 -34.789062 63.492188 -28.570312 C 59.917969 -24.46875 53.703125 -19.707031 43.914062 -19.707031 L 28.96875 -19.707031 L 28.96875 -86.109375 Z M 43.914062 -86.109375" transform="translate(764.29 567.195)"/></g></g></g><g fill="#FF8D55" fill-opacity=".4"><g><g><path d="M 70.632812 -86.242188 L 70.632812 -105.949219 L 9.257812 -105.949219 L 9.257812 0 L 70.632812 0 L 70.632812 -19.707031 L 29.101562 -19.707031 L 29.101562 -43.253906 L 53.835938 -43.253906 L 53.835938 -62.960938 L 29.101562 -62.960938 L 29.101562 -86.242188 Z M 70.632812 -86.242188" transform="translate(865.208 567.195)"/></g></g></g><g fill="#FF8D55" fill-opacity=".4"><g><g><path d="M 97.351562 -105.816406 L 75.660156 -105.816406 L 53.304688 -52.511719 L 31.082031 -105.816406 L 9.257812 -105.816406 L 9.257812 0 L 29.101562 0 L 29.101562 -58.464844 L 42.460938 -26.585938 L 64.152344 -26.585938 L 77.644531 -58.730469 L 77.644531 0 L 97.351562 0 Z M 97.351562 -105.816406" transform="translate(945.096 567.195)"/></g></g></g><g fill="#FF8D55" fill-opacity=".4"><g><g><path d="M 71.691406 0 L 92.324219 0 L 61.242188 -105.554688 L 61.242188 -105.816406 L 40.476562 -105.816406 L 9.257812 0 L 30.027344 0 L 37.828125 -26.320312 L 63.886719 -26.320312 Z M 43.648438 -46.03125 L 50.925781 -70.632812 L 58.066406 -46.03125 Z M 43.648438 -46.03125" transform="translate(1051.702 567.195)"/></g></g></g><g fill="#FF8D55" fill-opacity=".4"><g><g><path d="M 72.089844 -105.816406 L 72.089844 -34.390625 L 30.953125 -105.816406 L 9.257812 -105.816406 L 9.257812 0 L 29.101562 0 L 29.101562 -66.269531 L 67.195312 0 L 91.929688 0 L 91.929688 -105.816406 Z M 72.089844 -105.816406" transform="translate(1153.281 567.195)"/></g></g></g><g fill="#FF8D55" fill-opacity=".4"><g><g><path d="M 43.914062 -105.816406 L 9.257812 -105.816406 L 9.257812 0 L 43.914062 0 C 71.824219 0 91.664062 -23.675781 91.664062 -52.910156 C 91.664062 -82.140625 71.03125 -105.816406 43.914062 -105.816406 Z M 43.914062 -86.109375 C 59.65625 -86.109375 71.957031 -71.558594 71.957031 -52.910156 C 71.957031 -43.386719 69.046875 -34.789062 63.492188 -28.570312 C 59.917969 -24.46875 53.703125 -19.707031 43.914062 -19.707031 L 28.96875 -19.707031 L 28.96875 -86.109375 Z M 43.914062 -86.109375" transform="translate(1254.464 567.195)"/></g></g></g><g fill="#FFA125"><g><g><path d="M 43.914062 -105.816406 L 9.257812 -105.816406 L 9.257812 0 L 43.914062 0 C 71.824219 0 91.664062 -23.675781 91.664062 -52.910156 C 91.664062 -82.140625 71.03125 -105.816406 43.914062 -105.816406 Z M 43.914062 -86.109375 C 59.65625 -86.109375 71.957031 -71.558594 71.957031 -52.910156 C 71.957031 -43.386719 69.046875 -34.789062 63.492188 -28.570312 C 59.917969 -24.46875 53.703125 -19.707031 43.914062 -19.707031 L 28.96875 -19.707031 L 28.96875 -86.109375 Z M 43.914062 -86.109375" transform="translate(772.009 564.232)"/></g></g></g><g fill="#FFA125"><g><g><path d="M 70.632812 -86.242188 L 70.632812 -105.949219 L 9.257812 -105.949219 L 9.257812 0 L 70.632812 0 L 70.632812 -19.707031 L 29.101562 -19.707031 L 29.101562 -43.253906 L 53.835938 -43.253906 L 53.835938 -62.960938 L 29.101562 -62.960938 L 29.101562 -86.242188 Z M 70.632812 -86.242188" transform="translate(872.927 564.232)"/></g></g></g><g fill="#FFA125"><g><g><path d="M 97.351562 -105.816406 L 75.660156 -105.816406 L 53.304688 -52.511719 L 31.082031 -105.816406 L 9.257812 -105.816406 L 9.257812 0 L 29.101562 0 L 29.101562 -58.464844 L 42.460938 -26.585938 L 64.152344 -26.585938 L 77.644531 -58.730469 L 77.644531 0 L 97.351562 0 Z M 97.351562 -105.816406" transform="translate(952.815 564.232)"/></g></g></g><g fill="#FFA125"><g><g><path d="M 71.691406 0 L 92.324219 0 L 61.242188 -105.554688 L 61.242188 -105.816406 L 40.476562 -105.816406 L 9.257812 0 L 30.027344 0 L 37.828125 -26.320312 L 63.886719 -26.320312 Z M 43.648438 -46.03125 L 50.925781 -70.632812 L 58.066406 -46.03125 Z M 43.648438 -46.03125" transform="translate(1059.42 564.232)"/></g></g></g><g fill="#FFA125"><g><g><path d="M 72.089844 -105.816406 L 72.089844 -34.390625 L 30.953125 -105.816406 L 9.257812 -105.816406 L 9.257812 0 L 29.101562 0 L 29.101562 -66.269531 L 67.195312 0 L 91.929688 0 L 91.929688 -105.816406 Z M 72.089844 -105.816406" transform="translate(1161 564.232)"/></g></g></g><g fill="#FFA125"><g><g><path d="M 43.914062 -105.816406 L 9.257812 -105.816406 L 9.257812 0 L 43.914062 0 C 71.824219 0 91.664062 -23.675781 91.664062 -52.910156 C 91.664062 -82.140625 71.03125 -105.816406 43.914062 -105.816406 Z M 43.914062 -86.109375 C 59.65625 -86.109375 71.957031 -71.558594 71.957031 -52.910156 C 71.957031 -43.386719 69.046875 -34.789062 63.492188 -28.570312 C 59.917969 -24.46875 53.703125 -19.707031 43.914062 -19.707031 L 28.96875 -19.707031 L 28.96875 -86.109375 Z M 43.914062 -86.109375" transform="translate(1262.183 564.232)"/></g></g></g><g fill="#FF8D55" fill-opacity=".4"><g><g><path d="M 32.710938 -22.257812 L 32.710938 -119.496094 L 10.457031 -119.496094 L 10.457031 0 L 79.613281 0 L 79.613281 -22.257812 Z M 32.710938 -22.257812" transform="translate(755.115 340.039)"/></g></g></g><g fill="#FF8D55" fill-opacity=".4"><g><g><path d="M 66.320312 -120.988281 C 32.5625 -120.988281 5.226562 -93.65625 5.226562 -59.898438 C 5.226562 -26.140625 32.5625 1.195312 66.320312 1.195312 C 100.078125 1.195312 127.414062 -26.140625 127.414062 -59.898438 C 127.414062 -93.65625 100.078125 -120.988281 66.320312 -120.988281 Z M 66.320312 -98.136719 C 87.53125 -98.136719 102.46875 -80.957031 102.46875 -59.898438 C 102.46875 -38.835938 87.53125 -21.660156 66.320312 -21.660156 C 45.257812 -21.660156 30.320312 -38.835938 30.320312 -59.898438 C 30.320312 -80.957031 45.257812 -98.136719 66.320312 -98.136719 Z M 66.320312 -98.136719" transform="translate(845.17 340.039)"/></g></g></g><g fill="#FF8D55" fill-opacity=".4"><g><g><path d="M 103.8125 -74.683594 C 103.8125 -99.480469 92.460938 -119.496094 61.988281 -119.496094 L 10.457031 -119.496094 L 10.457031 0 L 32.863281 0 L 32.863281 -29.726562 L 61.988281 -29.726562 C 64.675781 -29.726562 67.214844 -29.875 69.605469 -30.171875 L 80.359375 0 L 103.8125 0 L 90.21875 -38.238281 C 100.078125 -46.453125 103.8125 -59.75 103.8125 -74.683594 Z M 32.863281 -52.128906 L 32.863281 -97.238281 L 61.988281 -97.238281 C 73.042969 -97.238281 76.03125 -93.507812 77.074219 -92.3125 C 79.914062 -88.726562 81.40625 -82.453125 81.40625 -74.683594 C 81.40625 -66.46875 79.914062 -60.195312 77.222656 -56.910156 C 74.683594 -53.625 69.605469 -52.128906 61.988281 -52.128906 Z M 32.863281 -52.128906" transform="translate(977.786 340.039)"/></g></g></g><g fill="#FF8D55" fill-opacity=".4"><g><g><path d="M 103.8125 -74.683594 C 103.8125 -99.480469 92.460938 -119.496094 61.988281 -119.496094 L 10.457031 -119.496094 L 10.457031 0 L 32.863281 0 L 32.863281 -29.726562 L 61.988281 -29.726562 C 64.675781 -29.726562 67.214844 -29.875 69.605469 -30.171875 L 80.359375 0 L 103.8125 0 L 90.21875 -38.238281 C 100.078125 -46.453125 103.8125 -59.75 103.8125 -74.683594 Z M 32.863281 -52.128906 L 32.863281 -97.238281 L 61.988281 -97.238281 C 73.042969 -97.238281 76.03125 -93.507812 77.074219 -92.3125 C 79.914062 -88.726562 81.40625 -82.453125 81.40625 -74.683594 C 81.40625 -66.46875 79.914062 -60.195312 77.222656 -56.910156 C 74.683594 -53.625 69.605469 -52.128906 61.988281 -52.128906 Z M 32.863281 -52.128906" transform="translate(1092.034 340.039)"/></g></g></g><g fill="#FF8D55" fill-opacity=".4"><g><g><path d="M 76.925781 -119.644531 L 54.96875 -67.664062 L 32.863281 -119.644531 L 10.457031 -119.644531 L 43.765625 -41.375 L 43.765625 0 L 66.023438 0 L 66.023438 -41.375 L 99.183594 -119.644531 Z M 76.925781 -119.644531" transform="translate(1206.282 340.039)"/></g></g></g><g fill="#FFA125"><g><g><path d="M 32.710938 -22.257812 L 32.710938 -119.496094 L 10.457031 -119.496094 L 10.457031 0 L 79.613281 0 L 79.613281 -22.257812 Z M 32.710938 -22.257812" transform="translate(763.832 336.693)"/></g></g></g><g fill="#FFA125"><g><g><path d="M 66.320312 -120.988281 C 32.5625 -120.988281 5.226562 -93.65625 5.226562 -59.898438 C 5.226562 -26.140625 32.5625 1.195312 66.320312 1.195312 C 100.078125 1.195312 127.414062 -26.140625 127.414062 -59.898438 C 127.414062 -93.65625 100.078125 -120.988281 66.320312 -120.988281 Z M 66.320312 -98.136719 C 87.53125 -98.136719 102.46875 -80.957031 102.46875 -59.898438 C 102.46875 -38.835938 87.53125 -21.660156 66.320312 -21.660156 C 45.257812 -21.660156 30.320312 -38.835938 30.320312 -59.898438 C 30.320312 -80.957031 45.257812 -98.136719 66.320312 -98.136719 Z M 66.320312 -98.136719" transform="translate(853.886 336.693)"/></g></g></g><g fill="#FFA125"><g><g><path d="M 103.8125 -74.683594 C 103.8125 -99.480469 92.460938 -119.496094 61.988281 -119.496094 L 10.457031 -119.496094 L 10.457031 0 L 32.863281 0 L 32.863281 -29.726562 L 61.988281 -29.726562 C 64.675781 -29.726562 67.214844 -29.875 69.605469 -30.171875 L 80.359375 0 L 103.8125 0 L 90.21875 -38.238281 C 100.078125 -46.453125 103.8125 -59.75 103.8125 -74.683594 Z M 32.863281 -52.128906 L 32.863281 -97.238281 L 61.988281 -97.238281 C 73.042969 -97.238281 76.03125 -93.507812 77.074219 -92.3125 C 79.914062 -88.726562 81.40625 -82.453125 81.40625 -74.683594 C 81.40625 -66.46875 79.914062 -60.195312 77.222656 -56.910156 C 74.683594 -53.625 69.605469 -52.128906 61.988281 -52.128906 Z M 32.863281 -52.128906" transform="translate(986.503 336.693)"/></g></g></g><g fill="#FFA125"><g><g><path d="M 103.8125 -74.683594 C 103.8125 -99.480469 92.460938 -119.496094 61.988281 -119.496094 L 10.457031 -119.496094 L 10.457031 0 L 32.863281 0 L 32.863281 -29.726562 L 61.988281 -29.726562 C 64.675781 -29.726562 67.214844 -29.875 69.605469 -30.171875 L 80.359375 0 L 103.8125 0 L 90.21875 -38.238281 C 100.078125 -46.453125 103.8125 -59.75 103.8125 -74.683594 Z M 32.863281 -52.128906 L 32.863281 -97.238281 L 61.988281 -97.238281 C 73.042969 -97.238281 76.03125 -93.507812 77.074219 -92.3125 C 79.914062 -88.726562 81.40625 -82.453125 81.40625 -74.683594 C 81.40625 -66.46875 79.914062 -60.195312 77.222656 -56.910156 C 74.683594 -53.625 69.605469 -52.128906 61.988281 -52.128906 Z M 32.863281 -52.128906" transform="translate(1100.75 336.693)"/></g></g></g><g fill="#FFA125"><g><g><path d="M 76.925781 -119.644531 L 54.96875 -67.664062 L 32.863281 -119.644531 L 10.457031 -119.644531 L 43.765625 -41.375 L 43.765625 0 L 66.023438 0 L 66.023438 -41.375 L 99.183594 -119.644531 Z M 76.925781 -119.644531" transform="translate(1214.998 336.693)"/></g></g></g><g fill="#FF8D55" fill-opacity=".4"><g><g><path d="M 31.757812 -57.933594 C 15.59375 -57.933594 2.503906 -44.84375 2.503906 -28.679688 C 2.503906 -12.515625 15.59375 0.570312 31.757812 0.570312 C 47.921875 0.570312 61.007812 -12.515625 61.007812 -28.679688 C 61.007812 -44.84375 47.921875 -57.933594 31.757812 -57.933594 Z M 31.757812 -46.992188 C 41.914062 -46.992188 49.066406 -38.765625 49.066406 -28.679688 C 49.066406 -18.597656 41.914062 -10.371094 31.757812 -10.371094 C 21.671875 -10.371094 14.519531 -18.597656 14.519531 -28.679688 C 14.519531 -38.765625 21.671875 -46.992188 31.757812 -46.992188 Z M 31.757812 -46.992188" transform="translate(979.674 434.952)"/></g></g></g><g fill="#FF8D55" fill-opacity=".4"><g><g><path d="M 38.980469 -57.21875 L 38.980469 -18.597656 L 16.738281 -57.21875 L 5.007812 -57.21875 L 5.007812 0 L 15.734375 0 L 15.734375 -35.832031 L 36.332031 0 L 49.707031 0 L 49.707031 -57.21875 Z M 38.980469 -57.21875" transform="translate(1043.172 434.952)"/></g></g></g><g fill="#FFA125"><g><g><path d="M 31.757812 -57.933594 C 15.59375 -57.933594 2.503906 -44.84375 2.503906 -28.679688 C 2.503906 -12.515625 15.59375 0.570312 31.757812 0.570312 C 47.921875 0.570312 61.007812 -12.515625 61.007812 -28.679688 C 61.007812 -44.84375 47.921875 -57.933594 31.757812 -57.933594 Z M 31.757812 -46.992188 C 41.914062 -46.992188 49.066406 -38.765625 49.066406 -28.679688 C 49.066406 -18.597656 41.914062 -10.371094 31.757812 -10.371094 C 21.671875 -10.371094 14.519531 -18.597656 14.519531 -28.679688 C 14.519531 -38.765625 21.671875 -46.992188 31.757812 -46.992188 Z M 31.757812 -46.992188" transform="translate(983.847 433.35)"/></g></g></g><g fill="#FFA125"><g><g><path d="M 38.980469 -57.21875 L 38.980469 -18.597656 L 16.738281 -57.21875 L 5.007812 -57.21875 L 5.007812 0 L 15.734375 0 L 15.734375 -35.832031 L 36.332031 0 L 49.707031 0 L 49.707031 -57.21875 Z M 38.980469 -57.21875" transform="translate(1047.346 433.35)"/></g></g></g></svg>